<svg width="90" height="90" viewBox="0 0 90 90" fill="none" xmlns="http://www.w3.org/2000/svg">
<path d="M85.5 65.25V24.75C85.5 21.015 82.485 18 78.75 18H15.705C11.97 18 8.95496 21.015 8.95496 24.75V65.25C8.95496 68.985 11.97 72 15.705 72H78.75C82.485 72 85.5 68.985 85.5 65.25ZM79.605 24.255C81.09 25.74 80.28 27.27 79.47 28.035L61.2 44.775L78.75 63.045C79.29 63.675 79.65 64.665 79.02 65.34C78.435 66.06 77.085 66.015 76.5 65.565L56.835 48.78L47.205 57.555L37.62 48.78L17.955 65.565C17.37 66.015 16.02 66.06 15.435 65.34C14.805 64.665 15.165 63.675 15.705 63.045L33.255 44.775L14.985 28.035C14.175 27.27 13.365 25.74 14.85 24.255C16.335 22.77 17.865 23.49 19.125 24.57L47.205 47.25L75.33 24.57C76.59 23.49 78.12 22.77 79.605 24.255Z" fill="#333333"/>
</svg>
