<svg width="76" height="82" viewBox="0 0 76 82" fill="none" xmlns="http://www.w3.org/2000/svg">
<path d="M37.9937 0.375C32.4531 0.375 5.29685 15.95 2.55623 20.7C-0.187524 25.45 -0.187524 56.5719 2.55623 61.3062C5.31248 66.0531 32.4687 81.625 37.9937 81.625C43.5062 81.625 70.6625 66.0625 73.425 61.3188C76.1969 56.5625 76.1969 25.4188 73.425 20.6812V20.675C70.6406 15.9375 43.4875 0.375 37.9937 0.375ZM37.9875 6.6625C43.2906 7.76562 64.3062 19.8031 67.9875 23.8438C69.675 28.9688 69.6719 53.0125 67.9875 58.15C64.3312 62.1844 43.3 74.2375 37.9875 75.3375C32.6812 74.2438 11.6625 62.1969 7.99998 58.1562C6.3281 53.0062 6.3281 28.9875 7.99998 23.8438C11.6562 19.8031 32.6781 7.75625 37.9875 6.6625ZM28.625 19.125L22.375 25.375H25.5V56.625H31.75V44.125H44.25V56.625H41.125L47.375 62.875L53.625 56.625H50.5V28.5H44.25V37.875H31.75V25.375H34.875L28.625 19.125Z" fill="#333333"/>
</svg>
