<svg width="100" height="100" viewBox="0 0 100 100" fill="none" xmlns="http://www.w3.org/2000/svg">
<g clip-path="url(#clip0_408_34)">
<path d="M85.0062 14.5376C80.4217 9.91054 74.9621 6.24222 68.9456 3.74635C62.9291 1.25048 56.4761 -0.0230208 49.9625 6.41752e-05C22.6687 6.41752e-05 0.425 22.2376 0.4 49.5376C0.4 58.2813 2.6875 66.7876 7.00625 74.3188L0 100L26.275 93.1126C33.5438 97.0683 41.6871 99.1417 49.9625 99.1438H49.9875C77.2875 99.1438 99.525 76.9063 99.55 49.5813C99.5563 43.0691 98.2738 36.62 95.7767 30.6056C93.2795 24.5911 89.617 19.1303 85 14.5376H85.0062ZM49.9625 90.7563C42.5812 90.7588 35.3356 88.7725 28.9875 85.0063L27.4875 84.1063L11.9 88.1938L16.0625 72.9876L15.0875 71.4188C10.9613 64.8584 8.77904 57.2627 8.79375 49.5126C8.79375 26.8501 27.275 8.36257 49.9875 8.36257C55.3984 8.35286 60.7577 9.41428 65.7564 11.4856C70.7551 13.557 75.2944 16.5973 79.1125 20.4313C82.944 24.2504 85.9814 28.7902 88.0495 33.789C90.1177 38.7878 91.1757 44.1466 91.1625 49.5563C91.1375 72.3001 72.6562 90.7563 49.9625 90.7563ZM72.5563 59.9188C71.325 59.3001 65.2437 56.3063 64.1 55.8813C62.9625 55.4751 62.1312 55.2626 61.3187 56.5001C60.4875 57.7313 58.1125 60.5376 57.4 61.3438C56.6875 62.1751 55.95 62.2688 54.7125 61.6563C53.4812 61.0313 49.4875 59.7313 44.7625 55.5001C41.075 52.2188 38.6063 48.1563 37.8688 46.9251C37.1562 45.6876 37.8 45.0251 38.4188 44.4063C38.9625 43.8563 39.65 42.9563 40.2687 42.2438C40.8937 41.5313 41.1 41.0063 41.5062 40.1813C41.9125 39.3438 41.7188 38.6313 41.4125 38.0126C41.1 37.3938 38.6312 31.2876 37.5875 28.8251C36.5875 26.3938 35.5687 26.7313 34.8062 26.7001C34.0938 26.6563 33.2625 26.6563 32.4313 26.6563C31.8035 26.6719 31.1858 26.8171 30.6168 27.0828C30.0479 27.3484 29.54 27.7288 29.125 28.2001C27.9875 29.4376 24.8063 32.4313 24.8063 38.5376C24.8063 44.6438 29.2437 50.5126 29.8687 51.3438C30.4812 52.1751 38.5812 64.6688 51.0125 70.0438C53.95 71.3251 56.2625 72.0813 58.0688 72.6563C61.0375 73.6063 63.7188 73.4626 65.8562 73.1563C68.2312 72.7938 73.175 70.1563 74.2188 67.2626C75.2438 64.3626 75.2438 61.8876 74.9313 61.3688C74.625 60.8438 73.7938 60.5376 72.5563 59.9188Z" fill="#333333"/>
</g>
<defs>
<clipPath id="clip0_408_34">
<rect width="100" height="100" fill="white"/>
</clipPath>
</defs>
</svg>
