<svg width="27" height="24" viewBox="0 0 27 24" fill="none" xmlns="http://www.w3.org/2000/svg">
<path d="M11.0358 18C10.8836 17.9996 10.733 17.9709 10.5936 17.9159C10.4541 17.8608 10.3288 17.7805 10.2252 17.68L4.82841 12.51C4.62667 12.3164 4.5186 12.0585 4.52797 11.7932C4.53734 11.5278 4.66338 11.2767 4.87838 11.095C5.09337 10.9133 5.3797 10.816 5.67437 10.8244C5.96905 10.8329 6.24793 10.9464 6.44967 11.14L11.0247 15.53L20.3637 6.33C20.4584 6.22372 20.5763 6.13602 20.7101 6.07227C20.8439 6.00851 20.9907 5.97007 21.1416 5.95928C21.2925 5.9485 21.4443 5.9656 21.5875 6.00955C21.7308 6.0535 21.8626 6.12336 21.9748 6.21485C22.087 6.30633 22.1772 6.41751 22.24 6.54154C22.3028 6.66558 22.3367 6.79986 22.3397 6.93614C22.3427 7.07242 22.3148 7.20781 22.2576 7.33401C22.2004 7.46021 22.1152 7.57455 22.0071 7.67L11.8576 17.67C11.755 17.7724 11.6301 17.8545 11.4906 17.9113C11.3511 17.9681 11.2 17.9983 11.0469 18H11.0358Z" fill="white"/>
</svg>
