<svg width="75" height="75" viewBox="0 0 75 75" fill="none" xmlns="http://www.w3.org/2000/svg">
<path d="M37.5 4.6875C46.2024 4.6875 54.5484 8.14452 60.7019 14.2981C66.8555 20.4516 70.3125 28.7976 70.3125 37.5C70.3125 46.2024 66.8555 54.5484 60.7019 60.7019C54.5484 66.8555 46.2024 70.3125 37.5 70.3125C28.7976 70.3125 20.4516 66.8555 14.2981 60.7019C8.14452 54.5484 4.6875 46.2024 4.6875 37.5C4.6875 28.7976 8.14452 20.4516 14.2981 14.2981C20.4516 8.14452 28.7976 4.6875 37.5 4.6875V4.6875ZM37.5 33.5203L29.8781 25.8984C29.3504 25.3707 28.6346 25.0742 27.8883 25.0742C27.1419 25.0742 26.4262 25.3707 25.8984 25.8984C25.3707 26.4262 25.0742 27.1419 25.0742 27.8883C25.0742 28.6346 25.3707 29.3504 25.8984 29.8781L33.5203 37.5L25.8984 45.1219C25.6371 45.3832 25.4298 45.6934 25.2884 46.0348C25.147 46.3762 25.0742 46.7422 25.0742 47.1117C25.0742 47.4813 25.147 47.8472 25.2884 48.1886C25.4298 48.53 25.6371 48.8403 25.8984 49.1016C26.1597 49.3629 26.47 49.5702 26.8114 49.7116C27.1528 49.853 27.5187 49.9258 27.8883 49.9258C28.2578 49.9258 28.6238 49.853 28.9652 49.7116C29.3066 49.5702 29.6168 49.3629 29.8781 49.1016L37.5 41.4797L45.1219 49.1016C45.3832 49.3629 45.6934 49.5702 46.0348 49.7116C46.3762 49.853 46.7422 49.9258 47.1117 49.9258C47.4813 49.9258 47.8472 49.853 48.1886 49.7116C48.53 49.5702 48.8403 49.3629 49.1016 49.1016C49.3629 48.8403 49.5702 48.53 49.7116 48.1886C49.853 47.8472 49.9258 47.4813 49.9258 47.1117C49.9258 46.7422 49.853 46.3762 49.7116 46.0348C49.5702 45.6934 49.3629 45.3832 49.1016 45.1219L41.4797 37.5L49.1016 29.8781C49.3629 29.6168 49.5702 29.3066 49.7116 28.9652C49.853 28.6238 49.9258 28.2578 49.9258 27.8883C49.9258 27.5187 49.853 27.1528 49.7116 26.8114C49.5702 26.47 49.3629 26.1597 49.1016 25.8984C48.8403 25.6371 48.53 25.4298 48.1886 25.2884C47.8472 25.147 47.4813 25.0742 47.1117 25.0742C46.7422 25.0742 46.3762 25.147 46.0348 25.2884C45.6934 25.4298 45.3832 25.6371 45.1219 25.8984L37.5 33.5203Z" fill="white"/>
</svg>
