<svg width="100" height="100" viewBox="0 0 100 100" fill="none" xmlns="http://www.w3.org/2000/svg">
<g clip-path="url(#clip0_406_4)">
<path d="M56.1792 4.10117e-05C55.4243 0.0250921 54.6819 0.199242 53.9947 0.512459C53.3075 0.825675 52.6891 1.27177 52.175 1.82504L29.65 25.9417L13.5917 43.1334C11.2529 45.6236 9.52796 48.6255 8.55416 51.9C8.34548 52.6035 8.17165 53.3169 8.03333 54.0375C7.40901 57.2984 7.49713 60.6556 8.29166 63.8792C8.64482 65.3335 9.13161 66.752 9.74583 68.1167C11.0196 70.9519 12.8162 73.5218 15.0417 75.6917L32.8625 93.1625L33.025 93.3209C42.3917 102.342 57.4083 102.208 66.6208 93.0125L76.6042 83.0459C78.8542 80.7959 78.8542 77.1542 76.6167 74.9C76.0842 74.3647 75.4513 73.9396 74.7542 73.6492C74.0572 73.3587 73.3098 73.2086 72.5547 73.2075C71.7996 73.2063 71.0516 73.3541 70.3537 73.6424C69.6558 73.9307 69.0216 74.3538 68.4875 74.8875L58.5042 84.8542C56.1765 87.1515 53.0461 88.4527 49.7758 88.4823C46.5055 88.5118 43.3521 87.2674 40.9833 85.0125L40.9 84.9334L23.0833 67.4625C20.3667 64.7959 19.0333 61.3417 19.1333 58.0334C19.1532 57.2997 19.2453 56.5698 19.4083 55.8542C19.8271 54.0391 20.7167 52.3663 21.9875 51.0042L38.0417 33.8084C42.45 29.0834 51.3917 28.5167 56.5 32.65L71.0875 44.4459C73.5583 46.4459 77.175 46.0584 79.1708 43.5834C80.1275 42.3944 80.574 40.8747 80.4123 39.3572C80.2506 37.8398 79.4941 36.4482 78.3083 35.4875L63.725 23.6917C60.3917 20.9959 56.3667 19.3375 52.1667 18.6834L60.5625 9.69171C61.3364 8.85955 61.8472 7.81727 62.0308 6.69576C62.2143 5.57426 62.0624 4.42353 61.594 3.38808C61.1257 2.35264 60.3619 1.47865 59.3985 0.875864C58.4352 0.273083 57.3151 -0.0316133 56.1792 4.10117e-05ZM44.2375 53.3959C43.4817 53.3959 42.7333 53.5449 42.0351 53.8344C41.337 54.1238 40.7027 54.5481 40.1687 55.083C39.6346 55.6178 39.2113 56.2526 38.9228 56.9512C38.6343 57.6498 38.4864 58.3984 38.4875 59.1542C38.4864 59.91 38.6343 60.6586 38.9228 61.3572C39.2113 62.0558 39.6346 62.6906 40.1687 63.2255C40.7027 63.7603 41.337 64.1846 42.0351 64.474C42.7333 64.7635 43.4817 64.9125 44.2375 64.9125H86.625C87.3808 64.9125 88.1292 64.7635 88.8273 64.474C89.5255 64.1846 90.1598 63.7603 90.6938 63.2255C91.2279 62.6906 91.6512 62.0558 91.9397 61.3572C92.2282 60.6586 92.3761 59.91 92.375 59.1542C92.3761 58.3984 92.2282 57.6498 91.9397 56.9512C91.6512 56.2526 91.2279 55.6178 90.6938 55.083C90.1598 54.5481 89.5255 54.1238 88.8273 53.8344C88.1292 53.5449 87.3808 53.3959 86.625 53.3959H44.2375Z" fill="#333333"/>
</g>
<defs>
<clipPath id="clip0_406_4">
<rect width="100" height="100" fill="white"/>
</clipPath>
</defs>
</svg>
